<?xml version="1.0" standalone="no"?>
<!DOCTYPE svg PUBLIC "-//W3C//DTD SVG 20010904//EN"
 "http://www.w3.org/TR/2001/REC-SVG-20010904/DTD/svg10.dtd">
<svg version="1.0" xmlns="http://www.w3.org/2000/svg"
 width="1280.000000pt" height="1264.000000pt" viewBox="0 0 1280.000000 1264.000000"
 preserveAspectRatio="xMidYMid meet">
<metadata>
Created by potrace 1.15, written by Peter Selinger 2001-2017
</metadata>
<g transform="translate(0.000000,1264.000000) scale(0.100000,-0.100000)"
fill="#000000" stroke="none">
<path d="M6305 12342 c-22 -11 -49 -29 -60 -42 -20 -22 -20 -38 -23 -780 -2
-584 -5 -760 -15 -768 -6 -5 -43 -22 -82 -37 -111 -44 -264 -123 -343 -178
-133 -92 -239 -234 -369 -494 -41 -83 -83 -155 -92 -160 -9 -4 -605 -10 -1326
-13 -720 -3 -1318 -9 -1328 -14 -10 -4 -30 -29 -45 -55 -22 -38 -27 -58 -26
-111 1 -88 9 -114 39 -128 19 -9 363 -12 1365 -12 l1339 0 11 -42 c18 -72 51
-160 87 -233 120 -240 361 -437 698 -570 l80 -31 3 -357 2 -357 -130 0 -130 0
0 -2869 0 -2868 38 -7 c20 -3 222 -6 448 -6 366 0 413 2 418 16 8 21 8 5662 0
5703 l-6 31 -154 0 -154 0 2 351 3 351 87 33 c199 77 390 188 490 283 103 98
208 278 274 467 15 44 32 86 37 93 7 9 291 12 1356 12 1496 0 1380 -6 1401 68
15 56 12 132 -9 177 -34 76 94 69 -1392 75 -1173 4 -1340 7 -1352 20 -7 8 -24
42 -37 75 -37 96 -116 260 -156 327 -113 185 -260 298 -529 403 -66 26 -137
54 -157 63 l-38 16 0 776 0 777 -27 12 c-50 23 -153 24 -198 3z m-85 -2162 l0
-310 -267 0 c-148 0 -284 3 -304 6 l-35 6 8 71 c16 133 90 256 215 357 91 74
184 126 276 156 119 38 107 69 107 -286z m471 294 c192 -57 383 -221 473 -407
32 -65 60 -179 48 -192 -8 -7 -579 -6 -624 1 l-38 7 0 303 0 304 43 0 c24 0
68 -7 98 -16z m-471 -1259 l0 -324 -32 5 c-126 23 -223 72 -322 165 -130 121
-227 285 -244 412 l-9 67 304 0 303 0 0 -325z m990 285 c0 -21 -10 -67 -23
-102 -80 -221 -384 -478 -584 -496 l-53 -4 0 321 0 321 330 0 330 0 0 -40z
m-695 -1562 c3 -13 4 -722 3 -1576 l-3 -1554 -24 -19 c-37 -30 -164 -25 -201
8 -3 3 -7 715 -10 1584 l-5 1579 117 0 c114 0 118 -1 123 -22z"/>
<path d="M2626 9118 c-7 -18 -253 -555 -546 -1193 -1147 -2499 -1414 -3082
-1436 -3133 l-24 -52 181 2 181 3 264 565 c146 311 520 1111 831 1778 312 666
572 1212 578 1212 15 0 -26 85 850 -1800 430 -927 791 -1702 801 -1722 l18
-38 179 0 c139 0 178 3 174 13 -3 6 -161 354 -352 772 -191 418 -637 1396
-991 2172 -354 777 -649 1422 -656 1433 -18 29 -36 25 -52 -12z"/>
<path d="M10146 9123 c-28 -56 -2009 -4349 -2013 -4365 -5 -17 8 -18 179 -18
l184 0 106 228 c95 204 921 1971 1377 2945 98 208 182 379 187 379 5 0 380
-799 834 -1776 l825 -1776 173 0 172 0 0 38 c0 29 -61 171 -246 573 -1754
3811 -1748 3799 -1759 3799 -2 0 -11 -12 -19 -27z"/>
<path d="M365 4513 c-23 -22 -53 -95 -61 -143 -9 -55 11 -103 60 -148 36 -33
53 -41 97 -47 30 -3 1035 -5 2234 -3 l2180 3 37 23 c20 12 51 44 68 70 29 42
31 53 27 103 -5 59 -25 107 -58 140 -19 19 -53 19 -2293 19 -2121 0 -2276 -1
-2291 -17z"/>
<path d="M7874 4522 c-23 -15 -35 -55 -40 -135 -5 -73 -3 -87 18 -126 13 -25
36 -54 51 -65 l28 -21 2217 0 c2508 0 2251 -9 2312 85 46 72 51 134 16 194
-14 25 -36 52 -48 61 -20 13 -260 15 -2283 15 -1243 0 -2265 -4 -2271 -8z"/>
<path d="M635 3943 c8 -46 67 -174 134 -291 27 -48 52 -98 56 -112 9 -30 100
-172 164 -255 301 -393 773 -646 1376 -736 59 -9 176 -14 345 -13 240 1 262 3
375 29 535 121 983 414 1317 859 137 182 268 443 268 533 l0 23 -2021 0 -2021
0 7 -37z"/>
<path d="M8110 3976 c0 -20 76 -229 108 -299 107 -231 311 -476 552 -664 249
-194 593 -350 920 -417 182 -37 276 -46 545 -53 231 -5 245 -5 370 20 418 84
763 274 1071 589 166 170 282 330 386 534 59 115 118 254 118 279 0 13 -249
15 -2035 15 -1119 0 -2035 -2 -2035 -4z"/>
<path d="M5608 2041 c-93 -19 -168 -124 -168 -238 0 -71 66 -177 127 -202 21
-8 252 -11 850 -9 l822 3 22 21 c23 24 59 139 59 191 0 18 -10 62 -21 97 -25
76 -69 123 -125 137 -46 10 -1512 10 -1566 0z"/>
<path d="M4624 1393 c-68 -13 -114 -171 -83 -288 15 -59 28 -81 56 -94 17 -8
516 -11 1786 -11 2007 0 1809 -10 1860 90 23 45 27 65 24 112 -4 63 -42 136
-90 172 l-28 21 -1752 1 c-964 1 -1762 -1 -1773 -3z"/>
<path d="M3581 790 c-18 -4 -52 -21 -74 -36 -135 -95 -113 -364 32 -404 23 -6
1029 -10 2854 -10 3161 0 2871 -8 2909 77 17 39 22 68 22 148 0 114 -21 180
-70 212 -27 17 -131 18 -2834 20 -1543 0 -2820 -3 -2839 -7z"/>
</g>
</svg>
